<?xml version="1.0" standalone="no"?>
<!DOCTYPE svg PUBLIC "-//W3C//DTD SVG 1.1//EN" "http://www.w3.org/Graphics/SVG/1.1/DTD/svg11.dtd"><svg xmlns="http://www.w3.org/2000/svg" style="background-color:#FFF" width="933" height="933"><path stroke="black" fill="none" stroke-width="1" d="M276.08, 211.68L272.57, 212.1L269.38, 211.93L266.5, 211.21L263.94, 209.99L261.67, 208.32L259.7, 206.26L258.02, 203.83L256.62, 201.11L255.5, 198.13L254.64, 194.94L254.05, 191.59L253.72, 188.13L253.63, 184.61L253.79, 181.08L254.18, 177.58L254.8, 174.16L255.11, 173.35L255.6, 172.6L256.97, 171.36L258.66, 170.54L260.4, 170.24L262.41, 169.85L264.05, 169.13L265.35, 168.1L266.35, 166.81L267.1, 165.28L267.61, 163.54L267.93, 161.64L268.1, 159.6L268.13, 155.23L267.96, 150.71L267.91, 146.29L268.24, 142.24L268.96, 138.28L269.85, 134.38L270.96, 130.56L272.3, 126.84L273.91, 123.22L275.8, 119.71L278.01, 116.34L280.56, 113.12L283.27, 110.32L286.14, 107.8L289.15, 105.55L292.29, 103.55L295.55, 101.8L298.91, 100.29L302.37, 99L305.9, 97.93L309.5, 97.06L313.16, 96.38L320.57, 95.56L328.03, 95.38L335.44, 95.76L342.78, 96.62L350.43, 97.94L358.29, 99.73L366.23, 102L374.15, 104.74L381.92, 107.95L389.42, 111.66L396.55, 115.85L403.19, 120.53L406.29, 123.06L409.22, 125.71L411.97, 128.49L414.53, 131.39L416.87, 134.42L419, 137.57L420.88, 140.86L422.51, 144.27L423.87, 147.81L424.95, 151.47L425.74, 155.27L426.21, 159.19L426.35, 163.25L426.16, 167.44L429.36, 167.66L432.23, 168.48L434.77, 169.86L436.98, 171.71L438.86, 173.98L440.42, 176.61L441.64, 179.54L442.54, 182.7L443.11, 186.03L443.36, 189.47L443.27, 192.95L442.86, 196.42L442.12, 199.81L441.05, 203.06L439.65, 206.1L437.92, 208.88L435.94, 210.92L433.8, 212.52L431.57, 213.8L429.31, 214.9L424.93, 217.07L422.92, 218.4L421.12, 220.08L420.52, 220.86L419.99, 221.92L419.5, 223.22L419.06, 224.72L418.29, 228.2L417.62, 232.05L417.01, 235.97L416.4, 239.69L415.73, 242.88L415.36, 244.2L414.96, 245.28L412.75, 250.22L410.27, 255.01L407.48, 259.69L404.32, 264.32L401.02, 268.4L397.42, 272.25L393.56, 275.83L389.46, 279.13L385.13, 282.14L380.61, 284.82L375.91, 287.17L371.07, 289.17L366.11, 290.79L361.04, 292.02L355.89, 292.83L350.69, 293.22L345.47, 293.16L340.23, 292.62L335.02, 291.6L329.84, 290.08L323.89, 287.6L318.39, 284.6L313.33, 281.12L308.68, 277.2L304.42, 272.89L300.52, 268.23L296.97, 263.26L293.72, 258.02L290.76, 252.56L288.07, 246.92L285.62, 241.14L283.38, 235.27L279.45, 223.41L276.08, 211.68"/><path stroke="black" fill="none" stroke-width="1" d="M272.16, 180.32L273.21, 180.22L274.22, 179.92L275.16, 179.44L276.01, 178.78L276.73, 177.97L277.28, 177.01L277.64, 175.93L277.76, 174.72L277.44, 163.73L277.46, 158.22L277.69, 152.74L278.22, 147.31L279.1, 141.96L280.42, 136.71L282.24, 131.6L284.28, 127.42L286.6, 123.7L289.18, 120.4L292.01, 117.52L295.06, 115.03L298.31, 112.91L301.74, 111.13L305.34, 109.69L309.09, 108.55L312.96, 107.71L316.93, 107.13L320.99, 106.79L325.11, 106.69L329.28, 106.79L337.68, 107.52L344.37, 108.52L351.16, 109.85L357.98, 111.52L364.75, 113.54L371.41, 115.93L377.88, 118.7L384.09, 121.87L389.98, 125.44L395.46, 129.43L400.47, 133.86L404.94, 138.73L406.95, 141.34L408.8, 144.06L410.47, 146.9L411.97, 149.86L413.27, 152.95L414.38, 156.15L415.28, 159.48L415.96, 162.94L416.42, 166.53L416.65, 170.24L415.48, 171.87L414.91, 173.7L414.89, 175.57L415.38, 177.31L416.35, 178.77L417.75, 179.77L418.6, 180.05L419.54, 180.15L420.57, 180.06L421.69, 179.76L424.32, 180.65L426.54, 181.65L428.37, 182.75L429.79, 183.96L430.81, 185.27L431.43, 186.69L431.66, 188.21L431.49, 189.84L430.92, 191.57L429.96, 193.41L428.62, 195.35L426.88, 197.4L424.76, 199.55L422.25, 201.81L419.36, 204.17L416.08, 206.64L414.88, 206.6L413.79, 206.88L412.83, 207.43L412.02, 208.18L411.37, 209.09L410.88, 210.1L410.58, 211.17L410.48, 212.24L409.84, 218.68L408.75, 225.15L407.22, 231.58L405.24, 237.91L402.82, 244.08L399.96, 250.02L396.66, 255.67L392.91, 260.96L388.73, 265.83L384.11, 270.22L379.05, 274.06L373.55, 277.29L370.64, 278.65L367.61, 279.84L364.48, 280.84L361.24, 281.65L357.9, 282.26L354.44, 282.66L350.87, 282.84L347.2, 282.8L343.45, 282.47L339.86, 281.89L336.44, 281.09L333.16, 280.07L330.04, 278.84L327.06, 277.42L324.22, 275.8L321.51, 274.01L318.94, 272.04L316.49, 269.92L311.96, 265.25L307.88, 260.06L304.22, 254.45L300.94, 248.49L298, 242.26L295.38, 235.85L293.02, 229.33L290.9, 222.79L288.98, 216.3L287.23, 209.96L285.6, 203.84L285.05, 202.5L284.29, 201.42L283.33, 200.61L282.24, 200.06L281.04, 199.77L279.77, 199.74L278.48, 199.98L277.2, 200.48L274.33, 197.84L271.79, 195.39L269.6, 193.12L267.75, 191.03L266.24, 189.13L265.07, 187.41L264.25, 185.87L263.76, 184.52L263.62, 183.35L263.81, 182.37L264.35, 181.57L265.23, 180.95L266.45, 180.52L268.01, 180.27L269.92, 180.2L272.16, 180.32"/><path stroke="black" fill="none" stroke-width="1" d="M480.48, 259.28L478.28, 259.21L476.29, 258.82L474.52, 258.12L472.94, 257.15L471.56, 255.94L470.37, 254.5L469.35, 252.88L468.51, 251.09L467.3, 247.12L466.7, 242.82L466.63, 238.4L467.04, 234.08L467.35, 233.26L467.84, 232.52L469.21, 231.27L470.9, 230.45L472.64, 230.15L474.32, 230.15L474.5, 224.71L475.03, 219.53L475.93, 214.62L477.19, 210.01L478.82, 205.73L480.82, 201.79L483.19, 198.21L485.94, 195.02L489.07, 192.23L492.59, 189.87L496.49, 187.97L500.78, 186.53L505.47, 185.58L510.55, 185.15L516.03, 185.26L521.92, 185.92L526.2, 186.67L530.61, 187.68L535.09, 188.93L539.58, 190.44L544.02, 192.2L548.36, 194.21L552.54, 196.48L556.5, 199.01L560.19, 201.79L563.54, 204.82L566.5, 208.11L569.01, 211.67L571.02, 215.48L572.47, 219.55L573.29, 223.88L573.44, 228.48L575.81, 229.09L577.87, 230.24L579.61, 231.86L581.03, 233.88L582.13, 236.22L582.89, 238.81L583.31, 241.57L583.38, 244.44L583.1, 247.32L582.45, 250.16L581.44, 252.88L580.06, 255.41L578.29, 257.66L576.14, 259.58L573.59, 261.07L570.64, 262.08L569.79, 266.36L568.72, 270.6L567.41, 274.75L565.87, 278.78L564.09, 282.68L562.07, 286.4L559.79, 289.93L557.27, 293.23L554.49, 296.27L551.45, 299.03L548.15, 301.48L544.57, 303.58L540.73, 305.31L536.61, 306.65L532.21, 307.55L527.52, 308L522.45, 307.89L517.73, 307.19L513.36, 305.93L509.3, 304.17L505.56, 301.93L502.1, 299.28L498.93, 296.25L496.02, 292.88L493.36, 289.23L490.93, 285.33L488.73, 281.23L486.73, 276.97L483.28, 268.17L480.48, 259.28"/><path stroke="black" fill="none" stroke-width="1" d="M485.52, 234.64L485.15, 228.93L485.1, 222.95L485.29, 219.98L485.68, 217.08L486.3, 214.3L487.2, 211.68L488.54, 208.72L490.04, 206.14L491.69, 203.9L493.48, 202L495.39, 200.4L497.42, 199.1L499.54, 198.05L501.76, 197.26L504.05, 196.68L506.42, 196.31L511.3, 196.09L516.31, 196.41L521.36, 197.12L528.72, 198.65L535.97, 200.79L539.48, 202.11L542.88, 203.62L546.13, 205.31L549.22, 207.2L552.11, 209.3L554.77, 211.62L557.19, 214.17L559.32, 216.96L561.14, 220.01L562.63, 223.3L563.75, 226.87L564.48, 230.72L563.53, 232.32L563.15, 234.09L563.3, 235.87L563.92, 237.51L564.96, 238.86L566.37, 239.78L568.09, 240.1L569.06, 239.99L570.08, 239.68L568.12, 245.56L566.16, 251.44L564.98, 251.57L563.95, 251.93L563.06, 252.48L562.31, 253.19L561.2, 254.99L560.56, 257.05L560.04, 261.21L559.13, 265.48L557.84, 269.76L556.19, 273.99L554.19, 278.1L551.85, 282L549.18, 285.62L546.21, 288.9L542.94, 291.74L539.39, 294.09L535.57, 295.85L531.5, 296.97L529.37, 297.26L527.19, 297.36L524.95, 297.26L522.65, 296.96L520.3, 296.43L517.9, 295.67L515.45, 294.68L512.96, 293.44L510.34, 291.84L507.95, 289.99L505.77, 287.9L503.78, 285.62L501.97, 283.16L500.33, 280.55L497.49, 274.96L495.14, 269.06L493.19, 263.05L491.51, 257.11L489.99, 251.44L489.66, 250.43L489.1, 249.49L488.36, 248.68L487.47, 248.01L486.48, 247.53L485.43, 247.27L484.34, 247.25L483.28, 247.52L479.92, 240.8L481.97, 239.84L483.77, 238.56L484.48, 237.77L485.04, 236.86L485.39, 235.82L485.52, 234.64"/><path stroke="black" fill="none" stroke-width="1" d="M138.88, 259.28L136.68, 259.21L134.69, 258.82L132.92, 258.12L131.34, 257.15L129.96, 255.94L128.77, 254.5L127.75, 252.88L126.91, 251.09L125.71, 247.12L125.1, 242.82L125.03, 238.4L125.44, 234.08L125.75, 233.26L126.24, 232.52L127.61, 231.27L129.3, 230.45L131.04, 230.15L132.72, 230.15L132.9, 224.71L133.43, 219.53L134.33, 214.62L135.59, 210.01L137.22, 205.73L139.22, 201.79L141.59, 198.21L144.34, 195.02L147.47, 192.23L150.99, 189.87L154.89, 187.97L159.18, 186.53L163.87, 185.58L168.95, 185.15L174.43, 185.26L180.32, 185.92L184.6, 186.67L189.01, 187.68L193.49, 188.93L197.98, 190.44L202.42, 192.2L206.76, 194.21L210.94, 196.48L214.9, 199.01L218.59, 201.79L221.94, 204.82L224.9, 208.11L227.41, 211.67L229.42, 215.48L230.87, 219.55L231.69, 223.88L231.84, 228.48L234.21, 229.09L236.27, 230.24L238.01, 231.86L239.43, 233.88L240.53, 236.22L241.29, 238.81L241.71, 241.57L241.78, 244.44L241.5, 247.32L240.85, 250.16L239.84, 252.88L238.46, 255.41L236.69, 257.66L234.54, 259.58L231.99, 261.07L229.04, 262.08L228.19, 266.36L227.12, 270.6L225.81, 274.75L224.27, 278.78L222.49, 282.68L220.47, 286.4L218.19, 289.93L215.67, 293.23L212.89, 296.27L209.85, 299.03L206.55, 301.48L202.97, 303.58L199.13, 305.31L195.01, 306.65L190.61, 307.55L185.92, 308L180.85, 307.89L176.13, 307.19L171.76, 305.93L167.7, 304.17L163.96, 301.93L160.5, 299.28L157.33, 296.25L154.42, 292.88L151.76, 289.23L149.33, 285.33L147.13, 281.23L145.13, 276.97L141.68, 268.17L138.88, 259.28"/><path stroke="black" fill="none" stroke-width="1" d="M143.92, 234.64L143.56, 228.93L143.5, 222.95L143.69, 219.98L144.08, 217.08L144.7, 214.3L145.6, 211.68L146.95, 208.72L148.45, 206.14L150.1, 203.9L151.88, 202L153.8, 200.4L155.82, 199.1L157.95, 198.05L160.16, 197.26L162.46, 196.68L164.82, 196.31L169.7, 196.09L174.71, 196.41L179.76, 197.12L187.13, 198.65L194.38, 200.79L197.89, 202.11L201.28, 203.62L204.54, 205.31L207.62, 207.2L210.51, 209.3L213.18, 211.62L215.59, 214.17L217.72, 216.96L219.54, 220.01L221.03, 223.3L222.15, 226.87L222.88, 230.72L221.93, 232.32L221.55, 234.09L221.7, 235.87L222.32, 237.51L223.37, 238.86L224.77, 239.78L226.5, 240.1L227.46, 239.99L228.49, 239.68L226.52, 245.56L224.56, 251.44L223.38, 251.57L222.35, 251.93L221.46, 252.48L220.71, 253.19L219.6, 254.99L218.96, 257.05L218.45, 261.21L217.54, 265.48L216.25, 269.76L214.6, 273.99L212.59, 278.1L210.25, 282L207.59, 285.62L204.61, 288.9L201.34, 291.74L197.79, 294.09L193.97, 295.85L189.9, 296.97L187.78, 297.26L185.59, 297.36L183.35, 297.26L181.05, 296.96L178.71, 296.43L176.31, 295.67L173.86, 294.68L171.36, 293.44L168.75, 291.84L166.35, 289.99L164.17, 287.9L162.18, 285.62L160.37, 283.16L158.73, 280.55L155.89, 274.96L153.55, 269.06L151.59, 263.05L149.91, 257.11L148.4, 251.44L148.06, 250.43L147.51, 249.49L146.76, 248.68L145.88, 248.01L144.89, 247.53L143.83, 247.27L142.75, 247.25L141.68, 247.52L138.32, 240.8L140.38, 239.84L142.17, 238.56L142.89, 237.77L143.44, 236.86L143.8, 235.82L143.92, 234.64"/><path stroke="black" fill="none" stroke-width="1" d="M323.68, 309.68L332.23, 308.86L340.66, 308.49L348.96, 308.56L357.14, 309.05L365.2, 309.96L373.13, 311.25L380.94, 312.92L388.62, 314.97L396.18, 317.36L403.61, 320.08L410.91, 323.13L418.08, 326.49L425.13, 330.15L432.04, 334.08L438.83, 338.27L445.48, 342.72L452, 347.4L458.39, 352.31L464.65, 357.42L470.78, 362.73L476.77, 368.21L482.63, 373.86L493.94, 385.6L504.7, 397.82L514.92, 410.41L524.58, 423.25L533.68, 436.24L534.26, 437.38L534.56, 438.48L534.59, 439.52L534.4, 440.5L534, 441.4L533.42, 442.2L531.86, 443.45L529.93, 444.15L527.85, 444.19L526.83, 443.93L525.85, 443.46L524.96, 442.77L524.16, 441.84L515.51, 429.68L506.36, 417.62L496.73, 405.78L486.6, 394.27L475.98, 383.18L464.87, 372.63L459.14, 367.59L453.28, 362.72L447.3, 358.05L441.21, 353.57L434.99, 349.31L428.66, 345.28L422.2, 341.49L415.63, 337.95L408.94, 334.68L402.13, 331.7L395.2, 329.01L388.16, 326.63L381, 324.57L373.72, 322.85L366.32, 321.48L358.81, 320.47L351.18, 319.83L343.43, 319.59L335.57, 319.75L327.6, 320.32L320.18, 321.24L313.03, 322.52L306.15, 324.15L299.52, 326.11L293.13, 328.39L286.98, 330.98L281.05, 333.86L275.34, 337.01L269.84, 340.44L264.54, 344.12L259.42, 348.03L254.48, 352.17L249.71, 356.53L245.1, 361.08L240.64, 365.81L236.32, 370.72L228.06, 380.99L220.26, 391.79L212.83, 402.99L205.69, 414.5L198.78, 426.21L192.02, 438.01L178.64, 461.44L177.82, 462.61L176.72, 463.21L175.48, 463.31L174.23, 462.98L173.11, 462.28L172.26, 461.28L171.82, 460.05L171.92, 458.64L173.87, 452.23L176.04, 445.81L178.43, 439.39L181.04, 432.99L183.85, 426.62L186.87, 420.29L190.09, 414.01L193.51, 407.8L197.12, 401.67L200.91, 395.62L204.9, 389.68L209.06, 383.85L213.4, 378.14L217.91, 372.57L222.59, 367.16L227.43, 361.9L232.43, 356.82L237.59, 351.92L242.89, 347.22L248.34, 342.74L253.94, 338.47L259.67, 334.44L265.54, 330.65L271.54, 327.13L277.66, 323.87L283.9, 320.9L290.27, 318.22L296.74, 315.85L303.32, 313.8L310.01, 312.08L316.8, 310.7L323.68, 309.68"/><path stroke="black" fill="none" stroke-width="1" d="M591.36, 362.88L592.55, 364.14L593.19, 365.71L593.32, 367.42L592.97, 369.11L592.18, 370.62L590.97, 371.78L589.38, 372.43L588.45, 372.51L587.44, 372.4L584.61, 371.12L581.97, 369.61L579.5, 367.89L577.18, 366L572.84, 361.81L568.75, 357.28L564.69, 352.65L560.43, 348.15L555.77, 344.01L553.22, 342.16L550.48, 340.48L545.64, 338L540.78, 336.02L535.9, 334.5L531.02, 333.44L526.14, 332.8L521.26, 332.58L516.4, 332.74L511.56, 333.27L506.75, 334.15L501.96, 335.36L497.22, 336.87L492.52, 338.67L487.88, 340.73L483.29, 343.05L478.77, 345.58L474.32, 348.32L472.84, 348.97L471.41, 348.93L470.12, 348.31L469.07, 347.27L468.37, 345.94L468.1, 344.46L468.37, 342.97L469.28, 341.6L472.29, 338.86L475.41, 336.3L478.66, 333.94L482, 331.76L485.45, 329.78L488.99, 327.99L492.61, 326.4L496.3, 325.01L500.06, 323.83L503.88, 322.85L507.74, 322.08L511.65, 321.52L515.59, 321.18L519.55, 321.05L523.53, 321.13L527.52, 321.44L532.11, 322.02L536.65, 322.9L541.11, 324.09L545.51, 325.57L549.83, 327.34L554.06, 329.39L558.2, 331.72L562.24, 334.32L566.41, 337.45L570.18, 340.91L573.67, 344.59L577.01, 348.39L583.74, 355.98L587.38, 359.56L591.36, 362.88"/><path stroke="black" fill="none" stroke-width="1" d="M227.36, 343.84L227.48, 345.06L227.08, 346.08L226.26, 346.67L225.72, 346.75L225.12, 346.64L218.01, 344.5L211.27, 341.99L198.31, 336.7L191.79, 334.35L185.04, 332.47L181.53, 331.77L177.91, 331.27L174.15, 330.99L170.24, 330.96L165.93, 331.2L161.79, 331.7L157.82, 332.44L153.99, 333.39L150.29, 334.56L146.71, 335.9L139.79, 339.08L133.12, 342.79L126.54, 346.87L119.92, 351.19L113.12, 355.6L111.82, 356.14L110.51, 356.14L109.28, 355.7L108.22, 354.9L107.42, 353.84L106.98, 352.61L106.98, 351.3L107.52, 350L109.77, 346.96L112.31, 344.06L115.12, 341.28L118.18, 338.64L121.47, 336.15L124.98, 333.8L128.67, 331.61L132.54, 329.59L136.57, 327.73L140.73, 326.04L145, 324.52L149.38, 323.2L153.82, 322.06L158.33, 321.11L162.88, 320.37L167.44, 319.83L172, 319.5L176.55, 319.4L181.06, 319.51L185.5, 319.85L189.88, 320.43L194.15, 321.24L198.31, 322.31L202.34, 323.62L206.21, 325.19L209.9, 327.02L213.41, 329.12L216.7, 331.5L219.76, 334.15L222.57, 337.09L225.11, 340.32L227.36, 343.84"/></svg>